<?xml version="1.0" encoding="UTF-8"?>
<svg xmlns="http://www.w3.org/2000/svg" version="1.1" viewBox="0 0 113.3858 56.6924">
  <!-- Generator: Adobe Illustrator 28.7.1, SVG Export Plug-In . SVG Version: 1.2.0 Build 142)  -->
  <g>
    <g id="Capa_1">
      <g>
        <g>
          <path d="M60.7019,25.8412h-8.0201c-2.2259,0-4.0473-1.8205-4.0473-4.0464s1.8214-4.0465,4.0473-4.0465h8.0201c2.2259,0,4.0465,1.8206,4.0465,4.0465s-1.8206,4.0464-4.0465,4.0464" fill="#fff"/>
          <path d="M34.9108,46.0941c-.1758-.1273-.4015-.1911-.6755-.1911-.1113,0-.2203.0108-.3277.033-.1075.0223-.2034.0592-.2863.1106-.0837.0522-.1505.122-.2004.2087-.0498.0868-.0752.195-.0752.3247,0,.1221.0361.2211.1082.297.073.076.1689.1382.2894.1858.1205.0483.2564.0883.4083.1197.152.0315.3071.0653.4644.1029.1574.0368.3124.0798.4644.1305.152.0499.2878.1174.4083.2019.1205.0859.2172.1934.2894.3223.0721.1297.1082.2924.1082.489,0,.211-.0468.3906-.142.541-.0944.1497-.2157.2718-.3638.3662s-.3139.1634-.4974.2057c-.1834.0422-.3661.0637-.548.0637-.2218,0-.4329-.0277-.6309-.0829-.1981-.056-.3723-.1397-.5227-.2533-.1497-.1128-.2687-.2572-.3554-.4329-.0875-.1757-.1305-.3837-.1305-.6248h.5005c0,.1674.0322.3109.0967.4306.0652.1205.1504.2195.2563.2971.1052.0775.2288.1351.3692.1719.1412.0376.2855.056.4337.056.1189,0,.2379-.0115.3584-.0338.1205-.0222.2288-.0598.3255-.1136.0967-.0537.1742-.1266.2333-.2195.0591-.0921.089-.211.089-.3553,0-.1367-.036-.2479-.1082-.3332-.0721-.0852-.1689-.1542-.2894-.208-.1205-.0537-.2563-.0967-.4083-.1304-.152-.0331-.307-.0676-.4644-.1029-.1573-.0345-.3123-.076-.4643-.122-.152-.0461-.2879-.1075-.4084-.1835-.1205-.0752-.2172-.1734-.2893-.294-.0722-.1197-.1082-.2709-.1082-.452,0-.2004.0406-.373.122-.5197.0814-.1458.1903-.2663.3254-.3607s.2894-.1642.4613-.2111c.1727-.046.3493-.069.5312-.069.2034,0,.393.0237.5672.0721.1742.0483.327.1243.4582.228.132.1036.2356.2341.3116.3906.076.1574.1175.3454.1251.5642h-.5004c-.0299-.2855-.1328-.492-.3085-.6195" fill="#c40041"/>
          <path d="M36.9095,48.1265c.0514.1942.1328.3692.2441.5242.1113.1558.254.2802.4283.3746.1742.0944.3815.142.6225.142s.449-.0476.6224-.142c.1743-.0944.317-.2188.4283-.3746.1113-.155.1927-.33.2449-.5242.0514-.195.0775-.3914.0775-.5918,0-.1995-.0261-.3968-.0775-.591-.0522-.1942-.1336-.3692-.2449-.5242-.1113-.1558-.254-.281-.4283-.3753-.1734-.0944-.3814-.1413-.6224-.1413s-.4483.0469-.6225.1413c-.1743.0943-.317.2195-.4283.3753-.1113.155-.1927.33-.2441.5242-.0522.1942-.0783.3915-.0783.591,0,.2004.0261.3968.0783.5918M36.4229,46.7549c.0798-.2502.1988-.4713.3584-.6632.1597-.1926.3577-.3461.5949-.4613.2372-.1143.5135-.1719.8282-.1719.3154,0,.591.0576.8281.1719.238.1152.436.2687.5949.4613.1596.1919.2794.413.3592.6632s.119.5096.119.7798-.0392.5304-.119.7799c-.0798.2502-.1996.4712-.3592.6639-.1589.1926-.3569.3454-.5949.4582-.2371.1128-.5127.1689-.8281.1689-.3147,0-.591-.0561-.8282-.1689s-.4352-.2656-.5949-.4582c-.1596-.1927-.2786-.4137-.3584-.6639-.0798-.2495-.1197-.5097-.1197-.7799s.0399-.5296.1197-.7798" fill="#c40041"/>
          <path d="M43.1496,46.1137c-.2019-.1405-.4421-.2111-.72-.2111-.2371,0-.4398.0445-.6086.1336-.1689.0882-.3078.208-.4168.3577-.1098.1496-.1904.3216-.2418.5135-.0522.1926-.0783.3922-.0783.6002,0,.2256.0261.439.0783.6408.0514.2019.132.3777.2418.5273.109.1497.2487.2695.4198.3585.1704.0883.3738.1328.611.1328.1742,0,.3293-.0284.4644-.086.135-.0575.2517-.1366.35-.2387.0982-.1013.175-.2226.231-.3638.0553-.1405.089-.2924.0998-.4551h.528c-.0514.4996-.2241.8888-.5165,1.1658-.2932.2779-.6931.4168-1.2012.4168-.3078,0-.5764-.0529-.8059-.1589-.2295-.1051-.4207-.2502-.5726-.4352-.152-.1849-.2656-.4037-.3416-.6554-.076-.2518-.1144-.522-.1144-.8106s.0407-.5595.1229-.8136c.0813-.2533.2003-.4743.3584-.6631.1573-.1888.3538-.3378.5887-.4467.2356-.109.505-.1643.809-.1643.208,0,.4045.0284.5895.0837.1849.0552.35.1366.495.2441.1443.1074.2648.2417.3608.4029.0967.1604.1596.347.1896.558h-.5281c-.0599-.2817-.1904-.4927-.3922-.6332" fill="#c40041"/>
        </g>
        <rect x="44.7871" y="45.5529" width=".528" height="3.9636" fill="#c40041"/>
        <path d="M48.2334,47.8793l-.6616-1.849h-.0115l-.6724,1.849h1.3455ZM47.8665,45.5529l1.5512,3.9644h-.5841l-.4336-1.1944h-1.6786l-.4452,1.1944h-.5388l1.545-3.9644h.5841Z" fill="#c40041"/>
        <polygon points="50.3346 45.5529 50.3346 49.0729 52.4362 49.0729 52.4362 49.5173 49.8066 49.5173 49.8066 45.5529 50.3346 45.5529" fill="#c40041"/>
        <rect x="52.7419" y="47.7512" width="1.6065" height=".4444" fill="#c40041"/>
        <path d="M56.6003,44.215l-.5895.9825h.5503l.9065-.9825h-.8673ZM57.9788,45.5529v.733h-2.0954v.8489h1.9227v.6777h-1.9227v.9717h2.1399v.7331h-3.0134v-3.9644h2.9689Z" fill="#c40041"/>
        <g>
          <path d="M61.1586,46.6104c-.0522-.0836-.1167-.1566-.195-.2195-.0775-.0629-.165-.1113-.264-.1466-.0983-.0353-.2003-.053-.3078-.053-.1965,0-.3638.0384-.5004.1137-.1374.0759-.2487.178-.3339.3054s-.1474.2733-.1865.436c-.0384.1627-.0584.3308-.0584.505,0,.1666.02.3286.0584.4859.0391.1573.1013.2986.1865.4245.0852.1258.1965.2271.3339.3024.1366.0767.3039.1143.5004.1143.2663,0,.4751-.0813.6248-.2441.1504-.1635.2425-.3776.2755-.6439h.8451c-.0223.2479-.0798.4713-.1727.6716-.0921.1995-.2149.3699-.3669.5104s-.33.2479-.5334.3224c-.2042.0736-.4283.1105-.6724.1105-.304,0-.578-.0522-.8205-.1581-.2426-.1052-.4475-.2502-.614-.436-.1666-.185-.2948-.4022-.3838-.6516-.0891-.2503-.1336-.5197-.1336-.8083,0-.2955.0445-.571.1336-.8243.089-.2533.2172-.4743.3838-.6632.1665-.1888.3714-.3369.614-.4444.2425-.1074.5165-.1612.8205-.1612.218,0,.4252.0315.6194.0944.195.063.3692.1551.5227.2748.1535.1205.2809.2694.3807.4475.0998.1773.1635.3807.1896.6102h-.8451c-.0153-.0998-.0483-.1911-.1005-.2748" fill="#c40041"/>
          <path d="M63.4907,48.0373c.0391.1574.1013.2986.1865.4245.0852.1258.1965.2272.3339.3024.1366.0767.3032.1144.4996.1144.1965,0,.3631-.0377.5005-.1144.1374-.0752.2487-.1766.3339-.3024.0852-.1259.1473-.2671.1865-.4245.0384-.1573.0583-.3193.0583-.4858,0-.1743-.0199-.3423-.0583-.5051-.0392-.1627-.1013-.3085-.1865-.436-.0852-.1274-.1965-.2295-.3339-.3054-.1374-.0752-.304-.1137-.5005-.1137-.1964,0-.363.0385-.4996.1137-.1374.0759-.2487.178-.3339.3054-.0852.1275-.1474.2733-.1865.436-.0384.1628-.0584.3308-.0584.5051,0,.1665.02.3285.0584.4858M62.6932,46.7271c.089-.2533.2165-.4743.3838-.6631.1665-.1889.3715-.337.614-.4445.2426-.1074.5158-.1611.8197-.1611.3078,0,.5819.0537.8229.1611.241.1075.4451.2556.6117.4445.1665.1888.2947.4098.3838.6631.089.2533.1335.5289.1335.8244,0,.2885-.0445.558-.1335.8082-.0891.2494-.2173.4667-.3838.6524-.1666.185-.3707.3301-.6117.4352-.241.1059-.5151.1581-.8229.1581-.3039,0-.5771-.0522-.8197-.1581-.2425-.1051-.4475-.2502-.614-.4352-.1673-.1857-.2948-.403-.3838-.6524-.089-.2502-.1336-.5197-.1336-.8082,0-.2955.0446-.5711.1336-.8244" fill="#c40041"/>
        </g>
        <polygon points="67.9301 45.5529 67.9301 48.7842 69.8651 48.7842 69.8651 49.5173 67.0574 49.5173 67.0574 45.5529 67.9301 45.5529" fill="#c40041"/>
        <g>
          <path d="M71.1126,48.0373c.0391.1574.1013.2986.1865.4245.0852.1258.1965.2272.3339.3024.1366.0767.3031.1144.4996.1144s.3638-.0377.5005-.1144c.1374-.0752.2486-.1766.3338-.3024.0852-.1259.1474-.2671.1866-.4245.0383-.1573.0583-.3193.0583-.4858,0-.1743-.02-.3423-.0583-.5051-.0392-.1627-.1014-.3085-.1866-.436-.0852-.1274-.1964-.2295-.3338-.3054-.1367-.0752-.304-.1137-.5005-.1137s-.363.0385-.4996.1137c-.1374.0759-.2487.178-.3339.3054-.0852.1275-.1474.2733-.1865.436-.0384.1628-.0584.3308-.0584.5051,0,.1665.02.3285.0584.4858M70.3151,46.7271c.089-.2533.2164-.4743.3838-.6631.1665-.1889.3714-.337.614-.4445.2425-.1074.5158-.1611.8197-.1611.3078,0,.5826.0537.8228.1611.241.1075.4452.2556.6118.4445.1665.1888.2947.4098.3837.6631.0891.2533.1336.5289.1336.8244,0,.2885-.0445.558-.1336.8082-.089.2494-.2172.4667-.3837.6524-.1666.185-.3708.3301-.6118.4352-.2402.1059-.515.1581-.8228.1581-.3039,0-.5772-.0522-.8197-.1581-.2426-.1051-.4475-.2502-.614-.4352-.1674-.1857-.2948-.403-.3838-.6524-.0891-.2502-.1336-.5197-.1336-.8082,0-.2955.0445-.5711.1336-.8244" fill="#c40041"/>
          <path d="M77.0306,49.4863c-.1888.0798-.3799.1197-.5725.1197-.304,0-.5772-.0529-.8198-.1588-.2425-.1052-.4475-.2502-.6148-.4352-.1665-.185-.294-.403-.383-.6524-.089-.2502-.1335-.5197-.1335-.8083,0-.2954.0445-.571.1335-.8243s.2165-.4743.383-.6632c.1673-.1888.3723-.3369.6148-.4444.2426-.1074.5158-.1612.8198-.1612.2041,0,.4014.0308.5925.0921.1903.0607.363.1505.5166.2695.1535.1181.2809.264.3807.4382.1005.1743.1611.3738.1834.5995h-.8336c-.0521-.2219-.1519-.3884-.3001-.4997-.1489-.1105-.3285-.1665-.5395-.1665-.1965,0-.3631.0383-.5005.1143-.1374.0752-.2479.1773-.3331.3047-.0852.1282-.1474.2733-.1865.436-.0392.1627-.0584.3316-.0584.505,0,.1666.0192.3286.0584.4859.0391.1573.1013.2993.1865.4252.0852.1251.1957.2265.3331.3025.1374.0759.304.1135.5005.1135.2893,0,.5127-.0729.67-.2195.1574-.1458.2495-.3576.2748-.6355h-.8781v-.6493h1.6679v2.1429h-.5557l-.089-.4497c-.1559.1995-.3285.3392-.5174.419" fill="#c40041"/>
        </g>
        <rect x="78.8991" y="45.5529" width=".8727" height="3.9644" fill="#c40041"/>
        <polygon points="83.5071 45.5529 83.5071 46.2859 81.4117 46.2859 81.4117 47.1348 83.3344 47.1348 83.3344 47.8125 81.4117 47.8125 81.4117 48.7842 83.5516 48.7842 83.5516 49.5173 80.5382 49.5173 80.5382 45.5529 83.5071 45.5529" fill="#c40041"/>
        <g>
          <path d="M60.9553,36.2343c-1.0438,0-1.8981-.8543-1.8981-1.8981v-4.56c0-1.0439.8543-1.8974,1.8981-1.8974h7.3554c.8006,0,1.486.5051,1.7631,1.2104,5.9546-8.8728,6.4504-19.1349,6.4504-19.1349-32.4909-5.6514-39.0519,14.2603-40.2808,24.8562,8.2435-14.8773,23.8154-15.7692,23.8154-15.7692-15.7876,6.1519-21.4291,21.2326-21.8113,22.2995,11.4172,1.5351,19.4366-.9564,25.0665-5.1065h-2.3587Z" fill="#c6ce2a"/>
          <path d="M62.2934,29.3641v5.8242c3.4869.2087,4.6574-.568,4.6574-3.0173,0-2.1238-1.0922-2.8069-3.1315-2.8069h-1.5259ZM62.2934,42.6058h-3.9176v-15.9818h5.0443c3.8769,0,7.5519.4275,7.5519,5.5232,0,5.0045-4.19,6.2786-8.6786,5.7551v4.7035Z" fill="#c40041"/>
          <path d="M72.1297,41.7985l.0338-3.2405c1.3984.7407,3.5698,1.2265,5.0097,1.2265,1.7547,0,2.4823-.5327,2.4823-1.5926,0-1.0831-.8382-1.4047-2.83-1.8882-2.1813-.5296-4.8969-1.1544-4.8969-4.7043,0-3.2306,2.3088-5.0397,6.3092-5.0397,1.9949,0,3.3435.2548,4.4426.5419l-.2648,2.8461c-.9963-.2403-2.4009-.4821-3.8731-.4821-2.0739,0-2.7961.5649-2.7961,1.628,0,1.0531.9157,1.4714,2.7478,1.9304,3.7287.931,4.9982,2.2504,4.9982,4.7496,0,3.2213-2.6603,4.9959-6.3644,4.9959-1.8606,0-3.454-.3301-4.9983-.971" fill="#c40041"/>
          <path d="M31.1357,30.216l7.2187-2.0416,6.1243-1.5313s2.1875.4375,2.4062.4375,2.9896,1.6771,2.9896,1.6771l.875,1.8958.5104.948,2.2597-.1459.4375,1.3125-.0729,8.166-4.3743.2187-2.7708,2.0417-3.6459.7291-4.2291-1.6041-4.4472,1.1666-1.3125-1.3854.2188-1.3854-1.3855-.3646-.7291-1.5312.8021-1.3118-.7292-1.2396-.4375-1.6041.8021-1.0938-.3646-.9479s-.9479-2.0417-.1458-2.4063" fill="#fff"/>
          <path d="M53.2975,40.6051h-2.8177c.4367-.7085.7752-1.4906.9801-2.318,0,0,0-.0031.0024-.0092.0122-.0461.0207-.0898.0245-.1305.1336-.5688.2026-1.1651.2026-1.7776v-3.8562c0-.1343-.0038-.2686-.0076-.4014h1.6157v8.4929ZM47.7826,39.7431c-1.5312,0-2.7769-1.248-2.7769-2.7962v-5.8625c0-.3147-.2472-.5664-.5703-.5664-.3078,0-.5573.2517-.5573.5664v5.6592c-.0023,1.3623-1.0983,2.4546-2.4415,2.4622-.2809,0-.5457-.0475-.7914-.1389v-6.5533c0-1.1045.3554-2.1199.9472-2.9482.1535-.2056.3239-.4037.5066-.5894.1942-.1957.4037-.3715.6278-.5388.8113-.5849,1.7991-.9226,2.8729-.9226.1566,0,.3193.0054.4698.0261.1704.0276.3385.0529.5165.0698.9748.1973,1.8398.6862,2.5207,1.3655.9026.9103,1.4506,2.1537,1.4506,3.5376v3.8562c0,.5434-.0637,1.0699-.1827,1.5703-.3991,1.0508-1.4099,1.8038-2.592,1.803M48.5341,41.236c-1.2442,1.2457-2.9651,2.0171-4.8448,2.0171-1.337,0-2.5666-.383-3.6159-1.0462.3208-.3584.5189-.8328.5189-1.3355,0-.1604-.0169-.3316-.063-.4905v-.0069c-.0161-.0567-.033-.1051-.0499-.165.3055.0875.6279.1359.9572.1359,1.1996,0,2.265-.6018,2.9128-1.5221.6609,1.2296,1.9549,2.0632,3.4332,2.0632.4383,0,.8612-.0737,1.2596-.2073-.1635.1927-.3293.3769-.5081.5573M39.4786,30.4643c-.1029.4321-.4337.7959-.8842.9133l-.8182.2088c-.0415.0131-.076.0184-.1198.0299l-4.6882,1.2059c-.0828.0122-.1481.0238-.2179.0238-.5412,0-1.0477-.3723-1.1966-.9272-.0223-.1106-.033-.2157-.033-.314,0-.5503.3676-1.053.921-1.1981l5.534-1.4207c.1075-.0284.2142-.0415.3078-.0415.5427,0,1.0485.3692,1.1836.928.0115.0138.0115.0184.0115.0322.023.0929.0299.1881.0299.2779,0,.099-.0069.1903-.0299.2817M39.4786,34.0334c-.0538.5004-.3938.9448-.9172,1.0806l-.8996.2295-4.7273,1.2143c-.1052.03-.2103.0368-.3147.0368-.5396,0-1.037-.3615-1.1851-.9187-.0238-.1105-.033-.2126-.033-.314,0-.5503.36-1.0499.9088-1.1996l.8627-.2203c.0545-.0084.1143-.0207.1642-.0345l4.6537-1.1989c.0921-.0169.175-.03.2694-.03.5373,0,1.0392.3646,1.1812.9234.0223.0721.0254.1535.0369.228,0,.0253.0069.0614.0069.0844,0,.0399-.0069.0783-.0069.119M38.5614,38.8412l-5.115,1.3149c-.109.0268-.2187.0406-.3147.0406-.5465,0-1.0454-.3661-1.1866-.9233-.0269-.1037-.0445-.2111-.0445-.314,0-.5487.37-1.053.9195-1.1958l.3922-.1005c0-.0047.0108-.0047.0108-.0047l4.7142-1.2096c.1121-.0253.2196-.0391.3232-.0391.5373,0,1.0392.3676,1.1812.921.0254.109.0369.2103.0438.3186-.0069.5388-.3707,1.0484-.9241,1.1919M38.8384,41.6835l-4.0181,1.0254c-.0752.0254-.1443.0269-.211.0269-.3692,0-.7077-.2472-.8052-.6294-.0238-.0721-.0253-.1389-.0253-.2111,0-.3676.2425-.71.624-.812l4.0143-1.024c.0828-.0161.1443-.0276.2103-.0276.3745,0,.7176.2533.8082.6271.0199.0698.0284.1458.0284.2126,0,.3715-.2495.7138-.6256.8121M54.2623,31.1366c-.1098-.099-.2526-.1642-.4038-.1642h-2.3625c-.3615-1.4161-1.2173-2.6358-2.3694-3.4624.5803-.1136,1.1037-.2901,1.5712-.4951.0146-.0046.0299-.0123.0491-.02.6578-.2916,1.2073-.6447,1.6656-.9978,1.0055-.7867,1.5266-1.565,1.6018-1.6824v-.0038c.0046-.0054.0077-.0077.0077-.0077.023-.0315.0376-.0591.0499-.0814,0-.0092,0-.0138.0046-.0253.0046-.0238.0146-.0468.0146-.0722.0092-.0092.0092-.0184.0161-.0291.0062-.0668.0062-.1359,0-.2019-.0069-.0115-.0069-.0169-.0161-.0307,0-.0223-.01-.0484-.0146-.0752-.0046-.0061-.0046-.0161-.0046-.0208-.0123-.0253-.0269-.0537-.0499-.0798l-.0077-.0069v-.0031c-.0775-.1189-.5963-.8964-1.6018-1.6847-.5488-.4275-1.245-.8489-2.077-1.1651q-.0023-.0047-.0108-.007c-.0253-.0115-.046-.0161-.0675-.0299-.1796-.0606-.3692-.1236-.5634-.1742.2226-.5573.3523-1.1606.3523-1.7853,0-1.0869-.3669-2.0885-.9763-2.8875.142-.449.2172-.9311.2172-1.4284,0-2.1776-1.4752-4.0097-3.4777-4.5401-.5534-1.6809-2.1292-2.8882-3.9736-2.8882-1.7738,0-3.2935,1.1106-3.9053,2.6795-.142-.0161-.2832-.0246-.4298-.0246-2.3134,0-4.1985,1.892-4.2023,4.233,0,.5258.0967,1.0324.2801,1.5029-1.0891.7898-1.806,2.0854-1.806,3.5422,0,1.4583.7192,2.7524,1.806,3.5484-.069.0245-.1358.0522-.2018.0736-.0092,0-.0223,0-.0246.007,0,0-.0146.0023-.0169.0061-.7798.2886-1.4284.6839-1.9303,1.0807-.9318.7192-1.4016,1.4292-1.473,1.5412-.0061.0092-.0061.0139-.013.0162-.0115.023-.0238.0483-.0384.0759-.0046.0085-.0046.0185-.0046.0269-.0192.0222-.0192.046-.0307.0775v.0207c-.0146.0691-.0146.1359,0,.2073v.0245c.0115.0285.0115.053.0307.0768,0,.01,0,.0153.0046.0246.0146.0253.0269.0521.0384.0752.0069.003.0069.0053.013.0115.0691.1144.5412.8243,1.473,1.5458.4213.3339.9433.6632,1.5634.938.3669.1565.753.2924,1.1767.3968l-1.9887.505c-1.0661.2856-1.7684,1.2488-1.7684,2.3057,0,.195.023.3953.0759.5964.1313.5066.4076.928.7783,1.2319-.604.4475-.9747,1.156-.9747,1.9288,0,.195.0245.3999.0752.6041.1596.6102.5434,1.1007,1.027,1.4146-.3731.4291-.5926.9855-.5926,1.5788,0,.1989.0223.3969.0775.6064.238.9341.9971,1.5904,1.8867,1.737-.0599.1903-.0875.3899-.0875.5925,0,.1627.0122.3316.0575.4943.2234.8911,1.0239,1.4829,1.8982,1.4829.1619,0,.3231-.0169.4874-.0622l3.8661-.9824c1.3248.9794,2.9535,1.5619,4.7265,1.5619,2.3418-.0046,4.4595-1.02,5.9239-2.6442h4.2453c.1512,0,.294-.0621.4038-.165.1043-.1051.1634-.2548.1634-.4106v-9.6297c0-.145-.0591-.2962-.1634-.4037" fill="#222221"/>
          <path d="M34.6607,16.6626c0-.1956.0153-.3852.0307-.5756-.0346.0399-.0821.0752-.129.1052-.9909.5503-1.6579,1.6095-1.6579,2.8276.0085,1.6057,1.1652,2.9366,2.6926,3.1861.0867,0,.175-.0085.2778-.0085.9449,0,1.7815.1743,2.4992.436l.0944-.0722c-2.2428-1.0062-3.8078-3.2705-3.8078-5.8986M34.7559,15.3463l.0299.0753c.284-1.473,1.0646-2.774,2.156-3.7004l.0392-.0299c.003,0,.4636-.3301,1.0761-.7422-.0146-.0054-.03-.0139-.0476-.0261-.165-.0269-.3339-.0438-.5089-.0438-1.7009.0092-3.061,1.3854-3.061,3.0947,0,.4813.1044.9403.2994,1.3463l.0169.0261ZM41.148,14.6371c.3431-.3124.6562-.667.9295-1.0508-.2249.0568-.4598.0852-.7008.0852-1.1989,0-2.2336-.7322-2.6711-1.7853-.2225.1497-.4229.2879-.5879.4022-.046.0292-.0798.053-.1213.0798.776,1.0616,1.8728,1.8652,3.1516,2.2689M39.6751,11.2668c.1396.4429.4298.8082.8258,1.0331l.0346-1.5235c-.2065.1028-.4421.2425-.6862.3807-.0568.0391-.1105.0736-.1742.1097M41.0697,9.4101c.2318.0069.3838.066.5718.132.1842.0753.3753.1681.5856.274.1988.1098.4161.2334.6325.3577.5173-.2087,1.0723-.3316,1.6602-.3446-.5296-.9564-1.5297-1.6072-2.6841-1.6034-1.3777-.0038-2.5444.9195-2.9213,2.1783.5527-.3523,1.1229-.6808,1.5819-.862.1888-.066.3485-.1251.5734-.132M44.1598,11.0051c.5734.383,1.0017.6862,1.004.6862l.0322.0299c.8658.7338,1.529,1.6893,1.9127,2.7739l.0177-.0483c.3615.1458.6931.3384,1.0024.5656.02-.1596.0284-.3231.0284-.4973,0-.9787-.3961-1.8675-1.0308-2.5122-.6417-.6417-1.5205-1.0446-2.4899-1.0446-.1643,0-.3201.0138-.4767.0361v.0107ZM45.2973,13.4804v.1658c0,.6516-.1243,1.268-.35,1.8344-.0192.0699-.0468.142-.0875.2019-.7683,1.6633-2.4392,2.8154-4.3704,2.8154-.0882.0023-.1604-.0039-.2341-.0054.9986.7406,2.2305,1.1705,3.5668,1.1705.6133,0,1.2189-.0944,1.7692-.2687.4782-.7943.7568-1.73.7568-2.7317,0-1.195-.3876-2.2964-1.0508-3.1822M37.7539,13.8358c.0499,1.1406.4122,2.1982,1.0132,3.0986.5111.274,1.0899.4298,1.7223.4298,1.0147-.0023,1.925-.4191,2.5997-1.0938.0698-.0644.1305-.1358.1988-.2087-.0883,0-.1804.0015-.2702.0015-2.0624,0-3.9244-.8512-5.2638-2.2274M41.6638,10.8063l-.0277,1.707c.5665-.0829,1.0531-.4429,1.3079-.9471-.4413-.2825-.9064-.5657-1.2802-.7599M44.1713,13.6462c0-.4406-.0736-.8597-.2126-1.2457-.3377.931-.8381,1.7791-1.4882,2.5045.1788.0161.3653.0253.5472.0253.3255,0,.6471-.0253.9533-.0706.1313-.3838.2003-.7875.2003-1.2135M36.621,13.8013c-.5219.8281-.8213,1.8052-.8282,2.8613.0069,1.4699.5864,2.7932,1.5482,3.7595.9555.9671,2.2727,1.5589,3.7287,1.5589,1.2756,0,2.43-.4521,3.3403-1.1997-.1957.0092-.3899.0231-.5879.0231-3.8922,0-7.0568-3.1086-7.2011-7.0031M47.4342,15.9212c.0314.241.043.4866.043.7414,0,1.3985-.446,2.6972-1.2013,3.7549.403-.0645.8175-.0975,1.2627-.0975.35,0,.6977.0231,1.0216.0668.2287-.4759.353-.9955.353-1.5566,0-1.1997-.5818-2.2558-1.479-2.909" fill="#c40041"/>
          <path d="M40.6125,23.6396c0-.2755.2196-.5004.489-.5004.099,0,.2026.0376.2778.0929.1282.0882.2126.2394.2126.4075v4.2545c-.3653.3255-.7015.6947-.9794,1.1076v-5.3621Z" fill="#c6ce2a"/>
          <path d="M42.3856,23.9591s1.4361-2.4683,5.4112-2.4683c2.3794,0,4.0957,1.3516,4.933,2.4683,0,0-1.3631,2.5215-5.2277,2.5215,0,0-3.2767.1504-5.1165-2.5215" fill="#c6ce2a"/>
          <path d="M31.1511,25.6283s1.4737-2.2642,4.9008-2.2642c1.6893,0,2.8591.7783,3.4271,1.1444v2.1767c-.2971.2042-1.4638,1.1913-3.4801,1.1913,0,0-3.0042.2011-4.8478-2.2482" fill="#c6ce2a"/>
        </g>
      </g>
    </g>
  </g>
</svg>